<svg width="56" height="56" viewBox="0 0 56 56" fill="none" xmlns="http://www.w3.org/2000/svg">
<rect width="56" height="56" rx="15" fill="white"/>
<path d="M38.0001 21C38.0001 22.1046 37.1047 23 36.0001 23C34.8956 23 34.0001 22.1046 34.0001 21C34.0001 19.8954 34.8956 19 36.0001 19C37.1047 19 38.0001 19.8954 38.0001 21Z" fill="#359740"/>
<path d="M33.0672 19.0891C32.7085 19.6385 32.5 20.2949 32.5 21C32.5 22.2064 33.1104 23.2703 34.0392 23.8996C32.6134 25.3228 31.5433 26.3684 30.6071 27.0827C29.5816 27.8651 28.8055 28.1789 27.9999 28.1789C27.1942 28.1789 26.4181 27.8651 25.3926 27.0827C24.3498 26.287 23.1408 25.0803 21.4591 23.3986L19.5159 21.4554L19.1088 21.0901L19 21C19.3084 20.5755 19.6366 20.2633 20.0611 19.9549C21.3754 19 23.2503 19 27 19H29C30.7005 19 32.0153 19 33.0672 19.0891Z" fill="#359740"/>
<path d="M35.5849 24.4756L35.5607 24.4999C33.9284 26.1321 32.6492 27.4113 31.517 28.2752C30.3581 29.1594 29.2653 29.6789 27.9999 29.6789C26.7344 29.6789 25.6417 29.1594 24.4827 28.2752C23.3505 27.4113 22.0713 26.1321 20.439 24.4998L18.4839 22.5447L18.3332 22.4095C18 23.6495 18 25.3601 18 28C18 31.7497 18 33.6246 18.9549 34.9389C19.2633 35.3634 19.6366 35.7367 20.0611 36.0451C21.3754 37 23.2503 37 27 37H29C32.7497 37 34.6246 37 35.9389 36.0451C36.3634 35.7367 36.7367 35.3634 37.0451 34.9389C38 33.6246 38 31.7497 38 28C38 26.2996 38 24.9847 37.911 23.9329C37.4086 24.2608 36.8168 24.4632 36.1801 24.4954C36.1242 24.4983 36.0679 24.4998 36.0113 24.5C36.0076 24.5 36.0039 24.5 36.0001 24.5C36.0001 24.5 36.0002 24.5 36.0001 24.5C35.8944 24.5 35.7897 24.4953 35.6863 24.4861C35.6524 24.4831 35.6186 24.4796 35.5849 24.4756Z" fill="#359740"/>
</svg>
