<svg width="56" height="56" viewBox="0 0 56 56" fill="none" xmlns="http://www.w3.org/2000/svg">
  <rect width="56" height="56" rx="15" fill="white"/>
  <path d="M28.9901 18.75C29.8509 18.75 30.2319 18.7508 30.5461 18.7789C34.0394 19.0917 36.808 21.8602 37.1207 25.3535C37.1489 25.6677 37.1496 26.0487 37.1496 26.9095V27.8995C37.1496 28.3137 37.4854 28.6495 37.8996 28.6495C38.3138 28.6495 38.6496 28.3137 38.6496 27.8995V26.8591C38.6496 26.0622 38.6496 25.6093 38.6147 25.2197C38.2373 21.0037 34.896 17.6623 30.6799 17.2849C30.2902 17.25 29.8374 17.25 29.0404 17.25H28.0001C27.5859 17.25 27.2501 17.5858 27.2501 18C27.2501 18.4142 27.5859 18.75 28.0001 18.75L28.9901 18.75Z" fill="#359740"/>
  <path d="M23.1118 20.0253C22.0597 19.0586 20.4426 19.0586 19.3905 20.0253C19.3474 20.0649 19.3014 20.1109 19.2417 20.1706L18.3442 21.0681C17.4411 21.9712 17.062 23.2732 17.339 24.5199C18.911 31.5938 24.4355 37.1183 31.5094 38.6903C32.7562 38.9674 34.0581 38.5883 34.9612 37.6851L35.8586 36.7877C35.9184 36.728 35.9644 36.6819 36.004 36.6388C36.9708 35.5867 36.9708 33.9696 36.004 32.9175C35.9644 32.8744 35.9184 32.8284 35.8586 32.7686L34.3894 31.2993C33.3693 30.2792 31.8287 29.9875 30.5063 30.564C29.7492 30.894 28.8672 30.7269 28.2832 30.1429L25.8864 27.7461C25.3024 27.1621 25.1354 26.2802 25.4654 25.5231C26.0418 24.2006 25.7501 22.6601 24.73 21.64L23.2607 20.1707C23.2009 20.1109 23.1549 20.0649 23.1118 20.0253Z" fill="#359740"/>
  <path d="M28.7071 20.7855C28.2929 20.7855 27.9571 21.1213 27.9571 21.5355C27.9571 21.9497 28.2929 22.2855 28.7071 22.2855H29.2728C29.36 22.2855 29.3957 22.2856 29.4248 22.286C31.7244 22.3189 33.5806 24.1751 33.6135 26.4747C33.6139 26.5037 33.614 26.5395 33.614 26.6267V27.1924C33.614 27.6066 33.9497 27.9424 34.364 27.9424C34.7782 27.9424 35.114 27.6066 35.114 27.1924V26.6194C35.114 26.5417 35.114 26.4944 35.1134 26.4532C35.0688 23.342 32.5575 20.8307 29.4463 20.7861C29.405 20.7855 29.3577 20.7855 29.28 20.7855H28.7071Z" fill="#359740"/>
</svg>

